<svg xmlns="http://www.w3.org/2000/svg" xmlns:xlink="http://www.w3.org/1999/xlink" width="100%" height="100%" version="1.1" viewBox="0 0 1600 1550" xml:space="preserve" style="fill-rule:evenodd;clip-rule:evenodd;stroke-linejoin:round;stroke-miterlimit:2"><g id="secuela-variable-regular" transform="matrix(1,0,0,1.72222,0,0)"><rect width="1600" height="900" x="0" y="0" style="fill:none"/><g><text x="203.828" y="390.415" transform="matrix(1,0,0,0.580645,-27.028,314.585)" style="font-family:'Secuela-Medium','Secuela';font-weight:500;font-size:200px">Sec<tspan x="471.028 565.028 654.428 703.228" y="390.415 390.415 390.415 390.415">uela</tspan> V<tspan x="926.428" y="390.415">a</tspan>ri<tspan x="1128.43" y="390.415">a</tspan>ble</text></g><g><text x="203.828" y="390.415" transform="matrix(1,0,0,0.580645,-45.028,216.92)" style="font-family:'Secuela-SemiBold','Secuela';font-weight:600;font-size:200px">Sec<tspan x="477.628 574.228 666.028 716.628" y="390.415 390.415 390.415 390.415">uela</tspan> V<tspan x="944.628" y="390.415">a</tspan>ri<tspan x="1154.03" y="390.415">a</tspan>ble</text></g><g><text x="203.828" y="390.415" transform="matrix(1,0,0,0.580645,-62.828,117.978)" style="font-family:'Secuela-Bold','Secuela';font-weight:700;font-size:200px">Sec<tspan x="484.228 583.628 677.828 730.428" y="390.415 390.415 390.415 390.415">uela</tspan> V<tspan x="963.228" y="390.415">a</tspan>ri<tspan x="1179.83" y="390.415">a</tspan>ble</text></g><g><text x="203.828" y="390.415" transform="matrix(1,0,0,0.580645,-80.328,17.7591)" style="font-family:'Secuela-ExtraBold','Secuela';font-weight:800;font-size:200px">Sec<tspan x="490.428 592.628 689.028 743.228" y="390.415 390.415 390.415 390.415">uela</tspan> V<tspan x="980.828" y="390.415">a</tspan>ri<tspan x="1205.03" y="390.415">a</tspan>ble</text></g><g><text x="203.828" y="390.415" transform="matrix(1,0,0,0.580645,-98.328,-83.8538)" style="font-family:'Secuela-Black','Secuela';font-weight:900;font-size:200px">Sec<tspan x="497.028 602.028 700.828 757.028" y="390.415 390.415 390.415 390.415">uela</tspan> V<tspan x="999.428" y="390.415">a</tspan>ri<tspan x="1230.83" y="390.415">a</tspan>ble</text></g><g><text x="203.828" y="390.415" transform="matrix(1,0,0,0.580645,8.67199,509.682)" style="font-family:'Secuela-Light','Secuela';font-weight:300;font-size:200px">Sec<tspan x="458.228" y="390.415">u</tspan>el<tspan x="676.428" y="390.415">a</tspan> V<tspan x="890.028" y="390.415">a</tspan>riable</text></g><g><text x="203.828" y="390.415" transform="matrix(1,0,0,0.580645,-9.02801,412.133)" style="font-family:'Secuela-Regular','Secuela';font-size:200px">Sec<tspan x="464.428 555.628 642.628 689.428" y="390.415 390.415 390.415 390.415">uela</tspan> V<tspan x="907.828" y="390.415">a</tspan>ri<tspan x="1102.63" y="390.415">a</tspan>ble</text></g><g><text x="203.828" y="390.415" transform="matrix(1.01622,0,0,0.590061,22.9667,603.554)" style="font-family:'Secuela-ExtraLight','Secuela';font-weight:200;font-size:196.809px">Sec<tspan x="447.674" y="390.415">u</tspan>ela V<tspan x="860.972" y="390.415">a</tspan>riable</text></g></g></svg>