<svg xmlns="http://www.w3.org/2000/svg" xmlns:xlink="http://www.w3.org/1999/xlink" width="100%" height="100%" version="1.1" viewBox="0 0 1600 1380" xml:space="preserve" style="fill-rule:evenodd;clip-rule:evenodd;stroke-linejoin:round;stroke-miterlimit:2"><g transform="matrix(1,0,0,1,0,-1621.8)"><g id="secuela-variable-italic" transform="matrix(1.17561,0,0,0.672187,-2006.76,1621.8)"><rect width="1361" height="2053" x="1707" y="0" style="fill:none"/><g><text x="203.828" y="390.415" transform="matrix(0.850625,0,0,1.48768,1733.42,1305.86)" style="font-family:'Secuela-ExtraLightItalic','Secuela';font-weight:200;font-style:italic;font-size:200px">Sec<tspan x="441.828" y="390.415">u</tspan>ela V<tspan x="851.228" y="390.415">a</tspan>riable</text></g><g><text x="203.828" y="390.415" transform="matrix(0.850625,0,0,1.48768,1719.4,1055.93)" style="font-family:'Secuela-LightItalic','Secuela';font-weight:300;font-style:italic;font-size:200px">Sec<tspan x="448.028" y="390.415">u</tspan>el<tspan x="657.228" y="390.415">a</tspan> V<tspan x="868.028 955.028" y="390.415 390.415">ar</tspan>iable</text></g><g><text x="203.828" y="390.415" transform="matrix(0.850625,0,0,1.48768,1690.88,806.003)" style="font-family:'Secuela-MediumItalic','Secuela';font-weight:500;font-style:italic;font-size:200px">Sec<tspan x="460.228 550.428 636.228 683.028" y="390.415 390.415 390.415 390.415">uela</tspan> V<tspan x="902.028 994.628" y="390.415 390.415">ar</tspan>iable</text></g><g><text x="203.828" y="390.415" transform="matrix(0.850625,0,0,1.48768,1676.98,555.775)" style="font-family:'Secuela-SemiBoldItalic','Secuela';font-weight:600;font-style:italic;font-size:200px">Sec<tspan x="466.628 559.428 647.628 696.028" y="390.415 390.415 390.415 390.415">uela</tspan> V<tspan x="919.028 1014.23" y="390.415 390.415">ar</tspan>iable</text></g><g><text x="203.828" y="390.415" transform="matrix(0.850625,0,0,1.48768,1662.71,302.275)" style="font-family:'Secuela-BoldItalic','Secuela';font-weight:700;font-style:italic;font-size:200px">Sec<tspan x="472.828 568.228 658.628 708.828" y="390.415 390.415 390.415 390.415">uela</tspan> V<tspan x="936.028 1034.03" y="390.415 390.415">ar</tspan>iable</text></g><g><text x="203.828" y="390.415" transform="matrix(0.850625,0,0,1.48768,1648.72,45.5008)" style="font-family:'Secuela-ExtraBoldItalic','Secuela';font-weight:800;font-style:italic;font-size:200px">Sec<tspan x="478.828 577.028 669.628 721.628" y="390.415 390.415 390.415 390.415">uela</tspan> V<tspan x="952.828 1053.63" y="390.415 390.415">ar</tspan>iable</text></g><g><text x="203.828" y="390.415" transform="matrix(0.850625,0,0,1.48768,1634.45,-214.843)" style="font-family:'Secuela-BlackItalic','Secuela';font-weight:900;font-style:italic;font-size:200px">Sec<tspan x="485.028 585.828 680.628 734.428" y="390.415 390.415 390.415 390.415">uela</tspan> V<tspan x="969.828 1073.43" y="390.415 390.415">ar</tspan>iable</text></g></g></g></svg>